# xmcd CD database file
#
# Track frame offsets:
#	150
#	24700
#	43165
#
# Disc length: 1143 seconds
#
# Revision: 12
# Processed by: cddbd v1.5.2PL0 Copyright (c) Steve Scherf et al.
# Submitted via: CDex 2.21
#
DISCID=21047503
DTITLE=Michael George - Fastlove
DYEAR=1996
DGENRE=Pop
TTITLE0=Fastlove (Part I)
TTITLE1=I'm Your Man
TTITLE2=Fastlove (Part II - Fully Extended Mix)
EXTD=YEAR: 1996
EXTT0=
EXTT1=
EXTT2=
PLAYORDER=
